<?xml version="1.0" standalone="no"?>
<!DOCTYPE svg PUBLIC "-//W3C//DTD SVG 20010904//EN"
 "http://www.w3.org/TR/2001/REC-SVG-20010904/DTD/svg10.dtd">
<svg version="1.0" xmlns="http://www.w3.org/2000/svg"
 width="512.000000pt" height="512.000000pt" viewBox="0 0 512.000000 512.000000"
 preserveAspectRatio="xMidYMid meet">
<metadata>
Created by potrace 1.14, written by Peter Selinger 2001-2017
</metadata>
<g transform="translate(0.000000,512.000000) scale(0.100000,-0.100000)"
fill="#000000" stroke="none">
<path d="M2093 4022 l-453 -227 0 -230 0 -230 -153 153 -154 154 -461 -231
-462 -231 0 -615 0 -615 1075 -537 1075 -538 460 230 460 230 0 152 c0 84 2
153 5 153 3 0 73 -34 155 -75 l150 -75 460 230 460 230 0 78 0 77 -1073 1073
c-589 589 -1077 1072 -1082 1071 -6 0 -214 -102 -462 -227z m1391 -1001 l919
-919 -306 -154 -307 -153 -463 462 -462 461 -300 -150 c-165 -83 -302 -152
-305 -155 -2 -2 202 -210 455 -463 253 -253 457 -461 455 -463 -3 -3 -140 -72
-306 -155 l-301 -150 -921 921 -922 922 307 153 306 154 307 -307 307 -307
306 154 307 153 -307 307 -306 306 299 151 c164 82 304 150 309 150 6 1 424
-413 929 -918z"/>
</g>
</svg>
